<?xml version="1.0" encoding="UTF-8" standalone="no"?>
<!DOCTYPE svg PUBLIC "-//W3C//DTD SVG 1.1//EN" "http://www.w3.org/Graphics/SVG/1.1/DTD/svg11.dtd">
<svg xmlns="http://www.w3.org/2000/svg" xmlns:xlink="http://www.w3.org/1999/xlink" version="1.1" width="619.37466pt" height="154.3208pt" viewBox="0 0 619.37466 154.3208">
<g enable-background="new">
<g id="Layer-1" data-name="Layer 1">
<clipPath id="cp0">
<path transform="matrix(1,0,0,-1,-125.9184,422.4953)" d="M 0 684 L 864 684 L 864 0 L 0 0 Z "/>
</clipPath>
<g clip-path="url(#cp0)">
<path transform="matrix(1,0,0,-1,163.99469,46.448915)" d="M 0 0 C 0 7.465 -4.874 11.82 -12.65 11.82 C -14.412 11.82 -15.864 11.716 -16.797 11.613 L -16.797 -13.065 C -15.968 -13.167 -14.827 -13.167 -13.791 -13.167 C -10.887 -13.167 -7.983 -12.339 -5.91 -11.094 C -3.007 -9.435 0 -5.91 0 -.104 Z M -31.521 -9.228 C -31.521 18.87 -31.521 23.225 -32.764 23.64 L -32.764 24.261 C -31.001 24.365 -28.099 24.469 -25.195 24.572 C -22.707 24.676 -18.145 24.78 -15.449 24.78 C -9.539 24.78 -4.458 24.261 .104 22.81 C 6.532 20.737 15.345 14.723 15.345 .933 C 15.345 -8.709 10.368 -14.93 6.636 -17.626 C 4.666 -19.182 2.384 -20.633 .622 -21.255 L .622 -21.463 C 2.073 -23.536 3.835 -26.024 19.388 -47.591 C 21.877 -51.014 25.091 -55.161 26.128 -55.782 L 26.128 -56.404 L 17.211 -56.404 L 10.575 -56.404 C 9.643 -56.404 8.294 -56.3 7.257 -55.988 C 1.245 -46.969 -5.806 -36.393 -13.997 -24.366 L -16.797 -24.366 L -16.797 -28.514 C -16.797 -50.806 -16.693 -55.161 -15.553 -55.782 L -15.553 -56.404 L -24.055 -56.404 L -32.764 -56.404 L -32.764 -55.782 C -31.521 -55.161 -31.521 -50.806 -31.521 -20.633 Z " fill="#231f20"/>
<path transform="matrix(1,0,0,-1,163.99469,46.448915)" stroke-width=".522" stroke-linecap="butt" stroke-miterlimit="4" stroke-linejoin="miter" fill="none" stroke="#231f20" d="M 0 0 C 0 7.465 -4.874 11.82 -12.65 11.82 C -14.412 11.82 -15.864 11.716 -16.797 11.613 L -16.797 -13.065 C -15.968 -13.167 -14.827 -13.167 -13.791 -13.167 C -10.887 -13.167 -7.983 -12.339 -5.91 -11.094 C -3.007 -9.435 0 -5.91 0 -.104 L 0 0 Z M -31.521 -9.228 C -31.521 18.87 -31.521 23.225 -32.764 23.64 L -32.764 24.261 C -31.001 24.365 -28.099 24.469 -25.195 24.572 C -22.707 24.676 -18.145 24.78 -15.449 24.78 C -9.539 24.78 -4.458 24.261 .104 22.81 C 6.532 20.737 15.345 14.723 15.345 .933 C 15.345 -8.709 10.368 -14.93 6.636 -17.626 C 4.666 -19.182 2.384 -20.633 .622 -21.255 L .622 -21.463 C 2.073 -23.536 3.835 -26.024 19.388 -47.591 C 21.877 -51.014 25.091 -55.161 26.128 -55.782 L 26.128 -56.404 L 17.211 -56.404 L 10.575 -56.404 C 9.643 -56.404 8.294 -56.3 7.257 -55.988 C 1.245 -46.969 -5.806 -36.393 -13.997 -24.366 L -16.797 -24.366 L -16.797 -28.514 C -16.797 -50.806 -16.693 -55.161 -15.553 -55.782 L -15.553 -56.404 L -24.055 -56.404 L -32.764 -56.404 L -32.764 -55.782 C -31.521 -55.161 -31.521 -50.806 -31.521 -20.633 L -31.521 -9.228 Z "/>
<path transform="matrix(1,0,0,-1,258.9722,62.312715)" d="M 0 0 C 0 15.242 -10.99 27.373 -25.817 27.373 C -41.162 27.373 -52.152 15.449 -52.152 -.207 C -52.152 -15.553 -41.162 -27.685 -25.817 -27.685 C -10.472 -27.685 0 -15.553 0 -.104 Z M 16.174 .311 C 16.174 -23.329 -1.763 -41.888 -26.232 -41.888 C -49.871 -41.888 -68.327 -23.536 -68.327 -.415 C -68.327 23.432 -49.768 41.37 -25.194 41.37 C -1.348 41.37 16.174 23.847 16.174 .415 Z " fill="#231f20"/>
<path transform="matrix(1,0,0,-1,258.9722,62.312715)" stroke-width=".522" stroke-linecap="butt" stroke-miterlimit="4" stroke-linejoin="miter" fill="none" stroke="#231f20" d="M 0 0 C 0 15.242 -10.99 27.373 -25.817 27.373 C -41.162 27.373 -52.152 15.449 -52.152 -.207 C -52.152 -15.553 -41.162 -27.685 -25.817 -27.685 C -10.472 -27.685 0 -15.553 0 -.104 L 0 0 Z M 16.174 .311 C 16.174 -23.329 -1.763 -41.888 -26.232 -41.888 C -49.871 -41.888 -68.327 -23.536 -68.327 -.415 C -68.327 23.432 -49.768 41.37 -25.194 41.37 C -1.348 41.37 16.174 23.847 16.174 .415 L 16.174 .311 Z "/>
<path transform="matrix(1,0,0,-1,319.5328,78.382999)" d="M 0 0 C 0 5.391 -3.73 8.813 -7.674 10.16 C -9.539 10.679 -12.13 11.094 -14.1 11.094 C -15.033 11.094 -16.9 10.99 -17.833 10.886 L -17.833 -10.576 C -17.833 -11.095 -17.833 -11.198 -17.522 -11.303 C -16.382 -11.508 -14.931 -11.508 -13.686 -11.508 C -11.303 -11.508 -8.501 -10.99 -6.428 -9.955 C -3.629 -8.711 0 -5.6 0 -.104 Z M -2.695 33.8 C -2.695 40.332 -7.258 43.858 -13.686 43.858 C -15.033 43.858 -16.9 43.754 -17.833 43.65 L -17.833 23.432 C -16.9 23.328 -15.863 23.328 -15.033 23.328 C -13.271 23.328 -11.508 23.536 -9.539 24.158 C -6.22 25.298 -2.695 28.409 -2.695 33.696 Z M 15.761 -1.66 C 15.761 -9.851 11.198 -16.486 5.186 -20.012 C 0 -23.122 -6.532 -24.678 -18.352 -24.678 C -21.358 -24.678 -23.847 -24.574 -27.061 -24.47 C -28.513 -24.47 -31 -24.262 -33.697 -24.16 L -33.697 -23.536 C -32.349 -23.122 -32.349 -18.664 -32.349 11.301 L -32.349 22.706 C -32.349 50.804 -32.349 54.64 -33.593 55.47 L -33.593 56.091 C -31.83 56.195 -28.927 56.403 -26.646 56.403 C -23.743 56.61 -19.181 56.61 -15.656 56.61 C -10.887 56.61 -5.599 55.989 -1.762 54.744 C 3.421 53.085 12.443 48.108 12.443 35.148 C 12.443 26.957 7.257 19.907 -.311 17.937 L -.311 17.729 C 8.191 16.174 15.761 9.02 15.761 -1.556 Z " fill="#231f20"/>
<path transform="matrix(1,0,0,-1,319.5328,78.382999)" stroke-width=".522" stroke-linecap="butt" stroke-miterlimit="4" stroke-linejoin="miter" fill="none" stroke="#231f20" d="M 0 0 C 0 5.391 -3.73 8.813 -7.674 10.16 C -9.539 10.679 -12.13 11.094 -14.1 11.094 C -15.033 11.094 -16.9 10.99 -17.833 10.886 L -17.833 -10.576 C -17.833 -11.095 -17.833 -11.198 -17.522 -11.303 C -16.382 -11.508 -14.931 -11.508 -13.686 -11.508 C -11.303 -11.508 -8.501 -10.99 -6.428 -9.955 C -3.629 -8.711 0 -5.6 0 -.104 L 0 0 Z M -2.695 33.8 C -2.695 40.332 -7.258 43.858 -13.686 43.858 C -15.033 43.858 -16.9 43.754 -17.833 43.65 L -17.833 23.432 C -16.9 23.328 -15.863 23.328 -15.033 23.328 C -13.271 23.328 -11.508 23.536 -9.539 24.158 C -6.22 25.298 -2.695 28.409 -2.695 33.696 L -2.695 33.8 Z M 15.761 -1.66 C 15.761 -9.851 11.198 -16.486 5.186 -20.012 C 0 -23.122 -6.532 -24.678 -18.352 -24.678 C -21.358 -24.678 -23.847 -24.574 -27.061 -24.47 C -28.513 -24.47 -31 -24.262 -33.697 -24.16 L -33.697 -23.536 C -32.349 -23.122 -32.349 -18.664 -32.349 11.301 L -32.349 22.706 C -32.349 50.804 -32.349 54.64 -33.593 55.47 L -33.593 56.091 C -31.83 56.195 -28.927 56.403 -26.646 56.403 C -23.743 56.61 -19.181 56.61 -15.656 56.61 C -10.887 56.61 -5.599 55.989 -1.762 54.744 C 3.421 53.085 12.443 48.108 12.443 35.148 C 12.443 26.957 7.257 19.907 -.311 17.937 L -.311 17.729 C 8.191 16.174 15.761 9.02 15.761 -1.556 L 15.761 -1.66 Z "/>
<path transform="matrix(1,0,0,-1,412.12654,62.312715)" d="M 0 0 C 0 15.242 -10.992 27.373 -25.816 27.373 C -41.164 27.373 -52.151 15.449 -52.151 -.207 C -52.151 -15.553 -41.164 -27.685 -25.816 -27.685 C -10.472 -27.685 0 -15.553 0 -.104 Z M 16.175 .311 C 16.175 -23.329 -1.763 -41.888 -26.232 -41.888 C -49.873 -41.888 -68.326 -23.536 -68.326 -.415 C -68.326 23.432 -49.769 41.37 -25.195 41.37 C -1.35 41.37 16.175 23.847 16.175 .415 Z " fill="#231f20"/>
<path transform="matrix(1,0,0,-1,412.12654,62.312715)" stroke-width=".522" stroke-linecap="butt" stroke-miterlimit="4" stroke-linejoin="miter" fill="none" stroke="#231f20" d="M 0 0 C 0 15.242 -10.992 27.373 -25.816 27.373 C -41.164 27.373 -52.151 15.449 -52.151 -.207 C -52.151 -15.553 -41.164 -27.685 -25.816 -27.685 C -10.472 -27.685 0 -15.553 0 -.104 L 0 0 Z M 16.175 .311 C 16.175 -23.329 -1.763 -41.888 -26.232 -41.888 C -49.873 -41.888 -68.326 -23.536 -68.326 -.415 C -68.326 23.432 -49.769 41.37 -25.195 41.37 C -1.35 41.37 16.175 23.847 16.175 .415 L 16.175 .311 Z "/>
<path transform="matrix(1,0,0,-1,454.7486,34.940095)" d="M 0 0 L -14.827 0 C -18.248 0 -20.737 -.415 -21.877 -1.659 L -22.706 -1.659 L -22.706 12.96 L 2.281 12.96 L 12.649 12.96 L 38.154 12.96 L 38.154 -1.659 L 37.429 -1.659 C 36.081 -.415 33.696 0 30.379 0 L 15.448 0 L 15.448 -32.142 C 15.448 -62.417 15.448 -67.187 17.004 -67.291 L 17.004 -67.913 L 7.879 -67.913 L -1.452 -67.913 L -1.452 -67.291 C 0 -66.461 0 -62.315 0 -32.142 Z " fill="#231f20"/>
<path transform="matrix(1,0,0,-1,454.7486,34.940095)" stroke-width=".522" stroke-linecap="butt" stroke-miterlimit="4" stroke-linejoin="miter" fill="none" stroke="#231f20" d="M 0 0 L -14.827 0 C -18.248 0 -20.737 -.415 -21.877 -1.659 L -22.706 -1.659 L -22.706 12.96 L 2.281 12.96 L 12.649 12.96 L 38.154 12.96 L 38.154 -1.659 L 37.429 -1.659 C 36.081 -.415 33.696 0 30.379 0 L 15.448 0 L 15.448 -32.142 C 15.448 -62.417 15.448 -67.187 17.004 -67.291 L 17.004 -67.913 L 7.879 -67.913 L -1.452 -67.913 L -1.452 -67.291 C 0 -66.461 0 -62.315 0 -32.142 L 0 0 Z "/>
<path transform="matrix(1,0,0,-1,518.8287,67.082218)" d="M 0 0 C 0 -30.173 0 -33.903 1.451 -35.148 L 1.451 -35.771 L -7.567 -35.771 L -17.004 -35.771 L -17.004 -35.045 C -15.553 -33.903 -15.553 -30.173 -15.553 -.104 L -15.553 11.405 C -15.553 39.503 -15.553 43.339 -16.9 44.377 L -16.9 45.103 L -7.775 45.103 L 1.35 45.103 L 1.35 44.377 C 0 43.339 0 39.607 0 11.405 Z " fill="#231f20"/>
<path transform="matrix(1,0,0,-1,518.8287,67.082218)" stroke-width=".522" stroke-linecap="butt" stroke-miterlimit="4" stroke-linejoin="miter" fill="none" stroke="#231f20" d="M 0 0 C 0 -30.173 0 -33.903 1.451 -35.148 L 1.451 -35.771 L -7.567 -35.771 L -17.004 -35.771 L -17.004 -35.045 C -15.553 -33.903 -15.553 -30.173 -15.553 -.104 L -15.553 11.405 C -15.553 39.503 -15.553 43.339 -16.9 44.377 L -16.9 45.103 L -7.775 45.103 L 1.35 45.103 L 1.35 44.377 C 0 43.339 0 39.607 0 11.405 L 0 0 Z "/>
<path transform="matrix(1,0,0,-1,599.2906,62.312715)" d="M 0 0 C 0 15.242 -10.99 27.477 -26.022 27.477 C -41.266 27.477 -52.359 15.345 -52.359 -.207 C -52.359 -15.345 -41.369 -27.891 -26.022 -27.891 C -10.472 -27.891 0 -15.553 0 -.104 Z M 16.175 .207 C 16.175 -9.539 12.442 -17.937 9.123 -22.084 C 6.532 -26.233 1.972 -31.207 -3.732 -34.318 L -3.732 -34.63 C -.934 -36.082 2.903 -37.741 6.532 -39.192 C 9.229 -40.332 12.338 -41.474 15.449 -42.407 C 16.9 -42.926 18.146 -43.133 19.078 -43.235 L 19.598 -43.651 C 17.108 -46.45 12.546 -51.324 10.161 -53.708 C 9.747 -53.916 9.539 -53.916 9.021 -53.708 C 5.185 -52.256 .104 -49.873 -4.354 -47.59 C -8.396 -45.62 -13.685 -42.51 -16.486 -40.85 C -17.626 -41.162 -19.285 -41.474 -20.942 -41.682 C -22.706 -41.888 -24.47 -41.991 -26.23 -41.991 C -50.183 -41.991 -68.534 -23.536 -68.534 -.622 C -68.534 23.329 -49.769 41.37 -24.987 41.37 C -1.451 41.37 16.175 23.847 16.175 .311 Z " fill="#231f20"/>
<path transform="matrix(1,0,0,-1,599.2906,62.312715)" stroke-width=".522" stroke-linecap="butt" stroke-miterlimit="4" stroke-linejoin="miter" fill="none" stroke="#231f20" d="M 0 0 C 0 15.242 -10.99 27.477 -26.022 27.477 C -41.266 27.477 -52.359 15.345 -52.359 -.207 C -52.359 -15.345 -41.369 -27.891 -26.022 -27.891 C -10.472 -27.891 0 -15.553 0 -.104 L 0 0 Z M 16.175 .207 C 16.175 -9.539 12.442 -17.937 9.123 -22.084 C 6.532 -26.233 1.972 -31.207 -3.732 -34.318 L -3.732 -34.63 C -.934 -36.082 2.903 -37.741 6.532 -39.192 C 9.229 -40.332 12.338 -41.474 15.449 -42.407 C 16.9 -42.926 18.146 -43.133 19.078 -43.235 L 19.598 -43.651 C 17.108 -46.45 12.546 -51.324 10.161 -53.708 C 9.747 -53.916 9.539 -53.916 9.021 -53.708 C 5.185 -52.256 .104 -49.873 -4.354 -47.59 C -8.396 -45.62 -13.685 -42.51 -16.486 -40.85 C -17.626 -41.162 -19.285 -41.474 -20.942 -41.682 C -22.706 -41.888 -24.47 -41.991 -26.23 -41.991 C -50.183 -41.991 -68.534 -23.536 -68.534 -.622 C -68.534 23.329 -49.769 41.37 -24.987 41.37 C -1.451 41.37 16.175 23.847 16.175 .311 L 16.175 .207 Z "/>
<path transform="matrix(1,0,0,-1,35.392099,.66470339)" d="M 0 0 C 0 0 43.317 -7.792 45.503 -8.331 C 47.688 -8.871 53.322 -9.932 54.575 -14.784 C 56.252 -21.277 59.428 -34.412 59.428 -34.412 C 59.428 -34.412 61.547 -41.395 55.091 -42.619 C 46.06 -44.329 -3.55 -53.078 -4.576 -53.219 C -5.331 -53.323 -17.585 -54.155 -15.554 -43.493 C -13.374 -32.043 -8.493 -6.072 -8.493 -6.072 C -8.493 -6.072 -6.822 1.127 0 0 " fill="#00a4e4"/>
<path transform="matrix(1,0,0,-1,91.7476,51.212587)" d="M 0 0 C 0 0 -43.847 -7.693 -46.046 -8.17 C -49.291 -8.877 -53.517 -9.587 -54.886 -15.73 C -56.341 -22.276 -58.566 -35.625 -58.566 -35.625 C -58.566 -35.625 -60.362 -42.423 -53.26 -43.623 C -43.252 -45.308 3.098 -52.692 6.982 -52.737 C 8.983 -52.761 20.218 -51.75 17.695 -41.19 C 14.989 -29.856 8.978 -5.28 8.82 -4.65 C 8.37 -2.838 6.766 1.124 0 0 " fill="#00a4e4"/>
<path transform="matrix(1,0,0,-1,16.723198,99.61929)" d="M 0 0 C 0 0 40.768 -6.193 42.975 -6.646 C 47.942 -7.668 54.26 -8.986 55.582 -14.866 C 57.069 -21.479 60.125 -34.579 60.125 -34.579 C 60.125 -34.579 61.8 -41.666 55.764 -42.774 C 46.639 -44.45 -3.98 -53.062 -4.727 -53.204 C -5.593 -53.371 -17.738 -54.105 -15.678 -43.447 C -13.464 -32.005 -8.511 -6.047 -8.511 -6.047 C -8.511 -6.047 -6.819 1.149 0 0 " fill="#00a4e4"/>
</g>
</g>
</g>
</svg>
